# xmcd CD database file
#
# Track frame offsets:
#	150
#	12350
#	25000
#	46440
#	61945
#	80250
#	95182
#	110802
#	126095
#	141472
#	158355
#	176905
#	189170
#
# Disc length: 2720 seconds
#
# Revision: 0
# Processed by: cddbd v1.5.1PL0 Copyright (c) Steve Scherf et al.
# Submitted via: CDex 1.40Release
#
DISCID=ab0a9e0d
DTITLE=Diverse - My Kind Of Country - TCS
DYEAR=2003
DGENRE=Country
TTITLE0=Welcome To Nashville - John Brack
TTITLE1=Hearaches And Honky Tonks - Jennifer Weatherly
TTITLE2=The Ballad Of Billy And Manuela Marie - Jeff Turner
TTITLE3=My Guitar - McGill
TTITLE4=By The Lord's Command - Mike Douchette
TTITLE5=Big City - Gina Buttler
TTITLE6=Friend - John Brack
TTITLE7=I Don't Know Mo Pa Conne - Joe Schwach Helmut Schöni with Figaro and his Sega Band
TTITLE8=I'm Going Out To Play The Jukebox - Gene Austin
TTITLE9=Your Love Amazes Me - Susan Orus - Duet with John Berry
TTITLE10=One Good Reason - Jeff Turner
TTITLE11=Seemed Like Yesterday - N Y Cole
TTITLE12=I Shall Wear A Crown - The Wise Men Quartet
EXTD=YEAR: 2003 ID3G: 2
EXTT0=
EXTT1=
EXTT2=
EXTT3=
EXTT4=
EXTT5=
EXTT6=
EXTT7=
EXTT8=
EXTT9=
EXTT10=
EXTT11=
EXTT12=
PLAYORDER=
